<?xml version="1.0" standalone="no"?>
<!DOCTYPE svg PUBLIC "-//W3C//DTD SVG 20010904//EN"
 "http://www.w3.org/TR/2001/REC-SVG-20010904/DTD/svg10.dtd">
<svg version="1.0" xmlns="http://www.w3.org/2000/svg"
 width="200.000000pt" height="200.000000pt" viewBox="0 0 200.000000 200.000000"
 preserveAspectRatio="xMidYMid meet">
<metadata>
Created by potrace 1.14, written by Peter Selinger 2001-2017
</metadata>
<g transform="translate(0.000000,200.000000) scale(0.100000,-0.100000)"
fill="#000000" stroke="none">
<path d="M625 1984 c-193 -33 -353 -130 -417 -254 -18 -35 -23 -61 -23 -115 0
-114 58 -211 202 -337 l42 -37 -104 -71 c-186 -127 -292 -243 -310 -342 -9
-48 16 -132 55 -186 91 -126 284 -181 496 -143 93 17 95 18 174 46 170 62 302
162 367 280 25 44 28 61 28 135 0 74 -4 92 -29 142 -16 31 -58 86 -93 122
l-65 65 99 30 c54 17 114 33 133 36 19 3 49 7 65 10 17 3 70 6 118 5 176 0
317 -62 367 -160 69 -136 -5 -261 -193 -328 -64 -22 -90 -26 -231 -28 -176 -3
-167 1 -179 -70 -3 -16 -20 -90 -37 -164 -17 -74 -34 -146 -36 -160 -3 -13
-14 -63 -25 -110 -26 -108 -79 -344 -79 -348 0 -1 69 -1 152 0 l153 3 42 195
c58 268 94 440 99 470 12 69 29 80 109 74 59 -5 92 -26 122 -80 21 -36 22 -50
19 -164 -3 -122 -18 -206 -66 -380 -10 -36 -21 -77 -24 -92 l-6 -28 158 0 159
0 31 118 c53 196 66 275 63 387 -3 145 -48 250 -133 309 l-22 16 24 17 c46 31
101 95 127 147 22 42 27 65 27 131 1 98 -22 154 -94 224 -43 42 -136 97 -180
106 -8 2 -46 11 -85 21 -52 13 -114 17 -243 17 -164 1 -172 2 -166 19 11 37 6
155 -9 209 -60 206 -296 313 -582 263z m259 -129 c60 -29 79 -101 53 -200
l-13 -50 130 -52 c135 -55 169 -74 126 -72 -26 2 -102 -8 -133 -17 -11 -4 -30
-7 -43 -9 -13 -1 -72 -15 -131 -30 l-108 -27 -45 26 c-144 81 -202 194 -151
294 56 109 221 181 315 137z m-271 -789 c64 -59 92 -122 77 -175 -16 -59 -70
-132 -121 -163 -77 -48 -197 -47 -254 0 -80 66 -72 157 19 246 49 47 190 136
216 136 8 0 36 -20 63 -44z"/>
<path d="M1404 1240 c-64 -26 -86 -133 -38 -189 62 -74 188 -48 213 43 26 100
-77 186 -175 146z"/>
</g>
</svg>
